#!OML:ASF F:\VICON\USERDATA\INSTALL\rory3\rory3.ASF
:FULLY-SPECIFIED
:DEGREES
377
root 1.89912 16.7094 14.0401 25.6189 5.77919 3.73856
lowerback -20.6335 -1.05175 -3.5006
upperback -7.10952 -0.658639 0.0829776
thorax 3.85518 -0.284326 1.92701
lowerneck -13.7331 -1.21341 0.422036
upperneck 38.0875 -2.05451 0.310931
head 15.7711 -0.726079 -0.283253
rclavicle 1.28962e-014 1.07344e-014
rhumerus -46.9253 12.1328 -89.5114
rradius 23.4569
rwrist -11.2854
rhand 14.1286 10.6924
rfingers 7.12502
rthumb 39.0307 -14.8188
lclavicle 1.28962e-014 1.07344e-014
lhumerus -57.8409 -16.1395 92.9983
lradius 33.7851
lwrist 14.0159
lhand 27.0982 20.0738
lfingers 7.12502
lthumb 51.0802 40.7104
rfemur -47.8019 3.55926 28.8946
rtibia 39.783
rfoot -47.1763 -30.0109
rtoes 42.2194
lfemur -20.0695 9.38551 -30.1779
ltibia 44.6477
lfoot 19.1613 31.1887
ltoes 30.056
378
root 1.90136 16.7083 14.0559 25.6148 5.84345 3.49301
lowerback -20.5064 -1.02158 -3.30129
upperback -7.29897 -0.668802 0.136262
thorax 3.58623 -0.283604 1.8696
lowerneck -13.5316 -1.20047 0.340013
upperneck 38.2521 -2.0579 0.436036
head 15.8094 -0.72101 -0.214107
rclavicle -1.95679e-015 -1.07344e-014
rhumerus -47.2108 11.9701 -89.4955
rradius 23.3969
rwrist -10.8632
rhand 14.2006 10.6684
rfingers 7.12502
rthumb 39.0987 -14.8233
lclavicle -1.95679e-015 -1.07344e-014
lhumerus -58.0776 -16.1948 93.0605
lradius 33.6921
lwrist 14.09
lhand 27.0378 19.9249
lfingers 7.12502
lthumb 51.0252 40.5922
rfemur -47.7069 3.52063 29.2135
rtibia 39.7462
rfoot -47.4783 -29.6234
rtoes 42.7202
lfemur -20.0655 9.44742 -29.913
ltibia 44.6619
lfoot 19.5744 30.928
ltoes 29.3125
379
root 1.89901 16.7047 14.0676 25.6152 5.77337 3.40816
lowerback -20.5734 -0.979238 -3.36548
upperback -7.25391 -0.598522 0.153192
thorax 3.66544 -0.249807 1.94005
lowerneck -13.4927 -1.2829 0.200329
upperneck 38.1102 -2.17086 0.524501
head 15.7315 -0.778056 -0.169473
rclavicle -1.36975e-014 -3.18055e-015
rhumerus -47.0661 11.7524 -89.3433
rradius 23.3294
rwrist -10.5574
rhand 14.0905 10.9007
rfingers 7.12502
rthumb 38.9949 -14.6208
lclavicle -1.36975e-014 -3.18055e-015
lhumerus -57.9928 -16.3649 93.1241
lradius 33.6131
lwrist 14.1334
lhand 26.9646 19.598
lfingers 7.12502
lthumb 50.9585 40.3025
rfemur -47.6278 3.70344 29.2621
rtibia 39.6962
rfoot -47.536 -29.6341
rtoes 42.7323
lfemur -20.0647 9.54075 -29.8342
ltibia 44.6819
lfoot 19.4784 31.0545
ltoes 29.7212
380
root 1.89735 16.7013 14.0797 25.6441 5.65268 3.47105
lowerback -20.7056 -0.932535 -3.57345
upperback -7.13821 -0.485492 0.0836953
thorax 3.85105 -0.197363 2.00982
lowerneck -13.4886 -1.3941 0.155493
upperneck 37.8711 -2.34878 0.596478
head 15.6125 -0.851794 -0.159894
rclavicle 1.97977e-014 -1.74931e-014
rhumerus -46.8307 11.5687 -89.2798
rradius 23.2022
rwrist -10.2974
rhand 13.9617 10.9336
rfingers 7.12502
rthumb 38.8735 -14.6225
lclavicle 1.97977e-014 -1.74931e-014
lhumerus -57.8954 -16.7111 93.2226
lradius 33.7979
lwrist 14.2406
lhand 26.8511 19.4778
lfingers 7.12502
lthumb 50.855 40.2398
rfemur -47.5927 3.79043 29.1682
rtibia 39.6474
rfoot -47.482 -29.7518
rtoes 42.6362
lfemur -20.0803 9.52382 -29.952
ltibia 44.7159
lfoot 19.7688 30.8639
ltoes 29.1748
381
root 1.8986 16.6945 14.0893 25.7145 5.62036 3.37764
lowerback -20.8361 -0.874252 -3.55551
upperback -7.02562 -0.402184 0.0252815
thorax 4.03399 -0.1615 1.95633
lowerneck -13.587 -1.42963 0.314203
upperneck 37.6336 -2.44007 0.576213
head 15.5145 -0.872521 -0.212362
rclavicle 8.8894e-015 1.05356e-014
rhumerus -46.6536 11.4989 -89.3572
rradius 23.2592
rwrist -10.1603
rhand 13.9927 10.6888
rfingers 7.12502
rthumb 38.9026 -14.859
lclavicle 8.8894e-015 1.05356e-014
lhumerus -57.6401 -16.8363 92.9983
lradius 33.9665
lwrist 14.08
lhand 26.7795 19.5667
lfingers 7.12502
lthumb 50.7897 40.3647
rfemur -47.6112 3.83946 29.2719
rtibia 39.6495
rfoot -47.1929 -29.9295
rtoes 42.0796
lfemur -20.1522 9.47305 -29.8956
ltibia 44.7544
lfoot 19.7768 30.8009
ltoes 28.911
382
root 1.89747 16.6858 14.0991 25.7805 5.46977 3.32161
lowerback -20.8603 -0.7948 -3.6315
upperback -7.03782 -0.278978 -0.0333298
thorax 4.02556 -0.100285 1.96618
lowerneck -13.654 -1.45814 0.381393
upperneck 37.6135 -2.52741 0.637648
head 15.5212 -0.890698 -0.213404
rclavicle -2.2618e-014 1.53064e-014
rhumerus -46.6608 11.2844 -89.3482
rradius 23.3478
rwrist -9.96805
rhand 13.9706 10.7759
rfingers 7.12502
rthumb 38.8819 -14.7779
lclavicle -2.2618e-014 1.53064e-014
lhumerus -57.5302 -16.9593 92.8724
lradius 33.9953
lwrist 13.9309
lhand 26.8363 19.5858
lfingers 7.12502
lthumb 50.8416 40.3552
rfemur -47.6508 4.02446 29.278
rtibia 39.6682
rfoot -46.828 -30.3738
rtoes 41.4268
lfemur -20.1993 9.49295 -29.9
ltibia 44.784
lfoot 18.935 31.2219
ltoes 30.3665
383
root 1.89845 16.6788 14.112 25.8225 5.31843 3.37787
lowerback -20.7969 -0.730458 -3.79974
upperback -7.12266 -0.161435 -0.105194
thorax 3.89369 -0.0379202 2.01287
lowerneck -13.7742 -1.51388 0.374596
upperneck 37.8278 -2.60541 0.614561
head 15.6574 -0.923644 -0.237264
rclavicle -1.56232e-014 3.97569e-015
rhumerus -46.811 11.2225 -89.4319
rradius 23.3471
rwrist -9.91991
rhand 13.6864 11.1972
rfingers 7.12502
rthumb 38.6138 -14.4324
lclavicle -1.56232e-014 3.97569e-015
lhumerus -57.4762 -17.0454 92.7721
lradius 33.9119
lwrist 13.7613
lhand 26.9894 19.7252
lfingers 7.12502
lthumb 50.9811 40.4172
rfemur -47.6594 4.06577 29.1889
rtibia 39.675
rfoot -46.8401 -30.1916
rtoes 41.5376
lfemur -20.1761 9.46678 -30.0171
ltibia 44.8147
lfoot 18.1107 31.5102
ltoes 31.5554
384
root 1.90201 16.6769 14.1242 25.7709 5.38792 3.18024
lowerback -20.5931 -0.708032 -3.64289
upperback -7.23052 -0.176739 -0.0573907
thorax 3.67476 -0.0407896 1.97094
lowerneck -13.6832 -1.53248 0.300711
upperneck 37.8888 -2.60803 0.608923
head 15.6673 -0.936132 -0.226256
rclavicle 9.06334e-015 -9.34288e-015
rhumerus -46.9755 11.3566 -89.5648
rradius 23.2739
rwrist -9.83891
rhand 13.6512 11.3542
rfingers 7.12502
rthumb 38.5806 -14.2847
lclavicle 9.06334e-015 -9.34288e-015
lhumerus -57.5277 -16.9489 92.6897
lradius 33.9518
lwrist 13.7454
lhand 27.1567 19.9641
lfingers 7.12502
lthumb 51.1335 40.5707
rfemur -47.5359 3.9554 29.475
rtibia 39.6424
rfoot -46.6961 -30.1244
rtoes 41.2889
lfemur -20.1483 9.37471 -29.7784
ltibia 44.8672
lfoot 19.5919 30.5388
ltoes 28.5779
385
root 1.90274 16.674 14.1317 25.8223 5.36809 3.09421
lowerback -20.5532 -0.744636 -3.68582
upperback -7.24482 -0.220619 -0.0171435
thorax 3.6415 -0.0609895 2.02816
lowerneck -13.7156 -1.51707 0.257069
upperneck 37.8798 -2.57995 0.629517
head 15.6716 -0.928277 -0.2054
rclavicle -6.28657e-015 -1.39149e-015
rhumerus -46.9145 11.725 -89.83
rradius 23.1046
rwrist -10.0466
rhand 13.6213 11.2883
rfingers 7.12502
rthumb 38.5524 -14.3585
lclavicle -6.28657e-015 -1.39149e-015
lhumerus -57.4247 -16.8311 92.5575
lradius 34.1066
lwrist 13.8469
lhand 27.0946 20.193
lfingers 7.12502
lthumb 51.0769 40.8313
rfemur -47.5147 4.00589 29.5651
rtibia 39.5783
rfoot -46.7194 -29.9867
rtoes 40.9435
lfemur -20.2317 9.40351 -29.6603
ltibia 44.9526
lfoot 19.8899 30.2096
ltoes 27.7895
386
root 1.906 16.6687 14.1402 25.8881 5.40051 2.93158
lowerback -20.6563 -0.75343 -3.58109
upperback -7.12387 -0.247594 0.00352786
thorax 3.82668 -0.0801926 1.98441
lowerneck -14.0373 -1.45552 0.439823
upperneck 37.8044 -2.52333 0.566782
head 15.7069 -0.886495 -0.258546
rclavicle -6.16854e-015 -6.95746e-015
rhumerus -46.6185 12.2425 -90.1917
rradius 22.9966
rwrist -10.2266
rhand 13.6331 11.2931
rfingers 7.12502
rthumb 38.5634 -14.3506
lclavicle -6.16854e-015 -6.95746e-015
lhumerus -57.0761 -16.9913 92.5219
lradius 33.9771
lwrist 14.1131
lhand 26.9128 19.9104
lfingers 7.12502
lthumb 50.9112 40.6412
rfemur -47.5149 3.81194 29.8786
rtibia 39.5121
rfoot -46.5364 -29.8801
rtoes 39.8443
lfemur -20.2335 9.41502 -29.4637
ltibia 45.0487
lfoot 17.6032 31.2675
ltoes 32.0615
387
root 1.90081 16.6617 14.147 25.9914 5.26137 2.76855
lowerback -20.7808 -0.708104 -3.63734
upperback -6.99855 -0.173278 0.0589577
thorax 4.02093 -0.0479408 2.09341
lowerneck -14.4636 -1.46279 0.482584
upperneck 37.6736 -2.53685 0.528433
head 15.7425 -0.890722 -0.289101
rclavicle -2.95692e-015 -9.14409e-015
rhumerus -46.195 12.3316 -90.1214
rradius 22.8133
rwrist -9.64245
rhand 13.8349 11.5161
rfingers 7.12502
rthumb 38.7538 -14.074
lclavicle -2.95692e-015 -9.14409e-015
lhumerus -56.6706 -17.1902 92.5529
lradius 33.8485
lwrist 14.3038
lhand 26.8318 19.8173
lfingers 7.12502
lthumb 50.8374 40.5889
rfemur -47.5836 4.49764 29.794
rtibia 39.4647
rfoot -47.033 -30.0313
rtoes 39.624
lfemur -20.4023 9.48593 -29.3379
ltibia 45.1268
lfoot 16.4311 31.8909
ltoes 34.0568
